<svg width="1581" height="391" viewBox="0 0 1581 391" fill="none" xmlns="http://www.w3.org/2000/svg">
<path d="M442.658 181.472C464.858 83.2419 300.358 56.6019 322.498 204.662C322.528 204.862 322.548 205.072 322.548 205.272C322.888 217.042 323.058 228.702 322.528 240.182C322.518 240.402 322.529 240.622 322.548 240.842C324.298 258.812 302.458 270.702 290.088 256.612C288.338 254.442 287.448 245.882 287.018 234.572C285.499 201.772 288.908 164.672 286.358 150.442C286.328 150.282 286.298 150.132 286.258 149.972C265.308 68.8019 143.389 86.0319 157.178 186.422C157.208 186.642 157.229 186.862 157.219 187.082C157.179 207.442 158.968 228.122 157.288 248.392C157.268 248.602 157.238 248.822 157.208 249.032C153.188 270.452 122.108 264.812 122.218 244.092C122.218 243.962 122.218 243.842 122.199 243.712C118.909 208.632 129.689 170.542 117.419 136.392C98.4885 90.8819 31.5585 88.5119 7.5885 131.612C-21.3615 182.582 40.6885 254.562 57.1785 306.242C57.2185 306.372 57.2685 306.502 57.3285 306.642C61.1785 315.732 65.0185 325.342 69.4185 334.532C73.9885 344.042 79.0885 353.052 85.5285 360.672C123.808 407.142 199.398 385.242 206.229 325.762C206.848 317.402 206.358 254.652 206.518 218.622C206.988 204.142 205.368 201.952 207.618 194.912C212.618 181.192 232.579 181.552 237.219 195.192C237.359 195.602 237.439 196.022 237.469 196.452C240.209 231.542 236.458 316.502 238.949 329.892C246.068 371.142 289.738 396.662 328.468 382.212C343.158 377.232 357.978 364.152 365.948 350.192C366.038 350.042 366.118 349.882 366.188 349.722C391.788 293.882 418.809 238.202 442.608 181.682L442.668 181.472H442.658Z" fill="#2756FF"/>
<path d="M745.808 99.282C736.688 99.112 681.248 99.262 657.418 99.212C638.838 99.212 621.178 111.202 613.348 127.842C610.128 134.962 528.698 316.592 525.338 324.072C525.248 324.282 524.928 325.012 524.358 326.522C524.188 326.972 524.008 327.482 523.828 328.012C507.938 378.692 576.238 409.252 603.478 363.562C603.548 363.452 603.598 363.352 603.658 363.232C607.968 354.902 632.898 300.242 656.988 248.612C670.398 219.732 679.268 200.542 686.408 185.182C687.228 183.412 688.968 182.282 690.908 182.152C690.918 182.152 690.938 182.152 690.948 182.152C739.218 180.822 799.958 176.682 805.218 238.832C805.878 246.792 803.958 255.652 801.818 263.262C783.498 331.542 680.918 283.462 643.998 314.292C627.748 328.652 625.508 357.382 642.538 373.912C649.438 380.902 658.878 385.412 669.248 386.112C669.388 386.112 669.538 386.142 669.678 386.162C925.308 430.162 965.328 119.662 745.928 99.302H745.798L745.808 99.282Z" fill="#2756FF"/>
<path d="M1202.03 251.962C1197.56 219.912 1154.53 203.972 1130.08 225.682C1122.5 231.642 1079.69 267.842 1061.21 282.182C1061.11 282.262 1061 282.342 1060.89 282.412C1030.34 303.252 992.209 290.602 979.639 258.582C976.479 250.412 974.969 240.292 976.289 230.922C990.089 133.452 1153.69 231.222 1171.22 149.322C1177.45 124.272 1157.73 98.972 1132.39 97.372C1132.22 97.362 1132.05 97.362 1131.88 97.372C1069.19 98.992 984.599 84.7019 935.969 132.592C800.299 262.142 981.409 464.842 1125.29 342.632C1126.9 341.452 1128.33 339.852 1129.16 341.882C1130.49 351.442 1133.93 360.672 1139.87 367.832C1145.22 374.482 1152.26 379.562 1160.28 382.232C1165.59 383.992 1171.32 384.702 1177.28 384.092C1241.99 376.392 1206.33 293.392 1202.05 252.152L1202.02 251.972L1202.03 251.962Z" fill="#2756FF"/>
<path d="M1425.36 292.802C1369.63 297.322 1311.22 287.142 1296.97 228.002C1296.61 226.612 1294.98 220.342 1292.66 211.432C1284.25 179.652 1271.94 130.592 1268.93 121.032C1261.1 97.8321 1233.63 85.0921 1210.33 95.1921C1190.25 103.482 1179.25 126.202 1185 147.232C1186.35 152.442 1201.46 210.512 1208.4 237.172C1211.18 247.662 1211.23 248.172 1212.95 254.692C1238.76 351.852 1340.49 393.502 1434.25 379.872C1439.49 378.922 1444.61 377.002 1448.72 374.432C1482.73 353.072 1471.36 292.302 1425.58 292.802H1425.36Z" fill="#2756FF"/>
<path d="M1432.21 179.752C1418.16 124.852 1504.19 94.552 1526.23 151.312C1529.37 159.972 1547.07 219.903 1562.94 271.792C1571.17 298.922 1576.86 317.762 1578.01 321.602H1578.02L1578.05 321.722C1595.75 377.662 1509 411.432 1485.04 353.912C1484.98 353.782 1484.94 353.652 1484.89 353.522C1480.36 340.122 1435.28 191.085 1432.21 179.752Z" fill="#2756FF"/>
<path d="M1457.12 102.882C1372.26 119.322 1373.33 -17.9877 1459.84 1.99169C1491.71 9.74168 1505.67 48.872 1491.46 76.772C1485.63 89.0119 1472.96 99.4324 1457.35 102.833L1457.12 102.882Z" fill="#2756FF"/>
<path d="M536.009 96.2221C518.959 96.1921 502.949 105.742 494.889 120.762C491.689 126.752 489.859 131.762 481.329 150.012C466.279 182.772 409.559 306.532 403.939 318.902C379.619 374.572 465.289 411.642 489.629 356.682C492.819 349.712 575.409 169.582 578.589 162.622C592.949 132.252 569.969 95.8921 536.209 96.2121H536.009V96.2221Z" fill="#2756FF"/>
</svg>
