<svg width="1478" height="314" viewBox="0 0 1478 314" fill="none" xmlns="http://www.w3.org/2000/svg">
<g clip-path="url(#clip0_11020_14510)">
<path d="M854.177 314C794.95 314.455 786.972 298.871 800.383 241.387C809.14 201.781 817.004 164.242 823.31 109.394C825.02 91.3258 832.789 78.0165 851.138 73.9214C856.685 72.6322 862.459 72.3667 868.158 72.2719C922.598 71.9117 977.703 72.0065 1032.85 71.9875C1045 72.1013 1054.65 71.4567 1062.99 74.2247C1078.74 79.3626 1081.89 93.6578 1079.21 108.465C1076.99 124.428 1077.58 141.7 1068.65 155.559C1061.32 167.579 1046.69 170.954 1033.45 171.409C1018.28 172.243 1001.3 173.665 988.113 168.774C977.115 165.228 971.378 154.08 971.739 142.951C971.435 136.619 973.164 128.827 971.321 123.177C967.56 111.84 940.112 115.138 931.602 119.613C922.807 123.897 922.313 133.775 920.775 142.42C915.399 177.153 909.549 211.678 904.344 246.449C903.793 250.392 903.242 254.848 903.926 258.545C906.091 273.579 935.667 270.811 944.367 265.256C950.54 261.521 953.124 254.506 954.434 247.681C955.688 241.14 956.999 232.23 949.514 229.48C941.878 226.921 932.305 227.907 925.732 222.333C911.068 210.408 921.895 190.159 938.269 186.993C966.097 182.253 997.857 185.325 1027.15 185.059C1036.57 185.116 1047.45 185.875 1054.54 192.51C1070.15 208.246 1058.64 233.367 1056.72 252.383C1053.63 274.11 1052.72 302.568 1028.61 310.36C1020.04 313.052 1009.67 312.825 1000.71 312.673C950.635 311.763 901.001 313.773 854.614 314.019H854.196L854.177 314Z" fill="#2756FF"/>
<path d="M453.339 313.223C424.732 312.768 386.533 316.749 394.625 275.399C397.265 257.748 402.546 223.812 406.459 200.227C407.675 193.098 409.042 185.988 412.291 179.523C418.464 166.859 431.001 158.972 442.151 151.009C452.997 143.293 461.887 135.33 472.581 127.708C479.04 123.139 485.574 118.115 493.115 115.499C502.803 111.688 515.492 115.063 518.664 125.395C522.444 138.97 516.821 153.891 515.302 167.503C512.452 184.87 509.85 201.99 507.438 220.039C503.734 244.363 501.131 268.536 493.837 291.135C488.29 307.44 469.219 313.602 453.681 313.242H453.32L453.339 313.223Z" fill="#2756FF"/>
<path d="M1373.47 312.218C1337.09 310.17 1340.93 284.879 1345.96 257.388C1349.42 237.576 1351.68 216.399 1356.15 197.591C1359.75 183.941 1372.52 175.106 1383.35 166.972C1399.06 155.104 1413.93 142.383 1430.63 131.633C1438.26 126.665 1448.33 122.931 1456.97 127.196C1465.96 131.291 1468.16 141.681 1466.89 150.706C1461.36 190.065 1451.73 248.307 1446.81 278.717C1445.61 285.941 1443.2 293.316 1438.3 299.383C1423.56 317.432 1395.16 311.763 1373.89 312.275H1373.51L1373.47 312.218Z" fill="#2756FF"/>
<path d="M1384.09 145.397C1368.57 144.847 1364.22 132.183 1366.42 118.93C1368.23 106.019 1369.65 93.1838 1371.78 80.1589C1376.79 40.3449 1405.29 37.8613 1441.34 39.6624C1450 40.0795 1459.44 40.5345 1466.89 45.2743C1476.71 51.3222 1480.11 64.2902 1476.77 74.9262C1473.46 85.6571 1463.26 93.7905 1454.45 101.052C1442.73 110.361 1429.05 119.575 1417.61 128.012C1407.34 135.425 1397.95 145.7 1384.47 145.416H1384.11L1384.09 145.397Z" fill="#2756FF"/>
<path d="M168.411 306.833C155.058 306.473 152.702 292.576 154.602 281.826C156.387 268.821 158.572 255.834 160.585 242.998C162.048 232.969 163.852 222.693 165.334 212.683C166.075 207.204 165.771 201.156 158.876 205.042C125.482 228.495 100.503 250.544 69.731 273.807C63.7475 278.433 57.4221 283.229 51.2297 287.761C32.4814 300.596 19.4126 312.294 6.30593 303.705C-4.78728 297.885 1.46215 266.053 4.46339 250.298C7.36966 234.713 9.42115 224.532 12.1755 210.427C20.1345 171.447 32.0445 103.782 40.1174 37.2166C41.3331 30.1449 42.8148 24.2486 46.2149 18.8453C55.8645 3.54535 72.9222 3.35576 89.543 2.90075C103.732 2.25614 122.785 1.08068 133.764 9.99144C141.913 16.2479 143.167 27.0736 142.122 36.6479C139.5 67.4564 130.763 108.787 126.337 140.544C123.772 158.251 134.828 153.568 144.667 145.871C182.981 117.11 219.508 87.7805 258.316 59.5504C264.204 55.569 271.897 51.417 278.47 52.6683C295.128 56.6876 288.765 79.5333 287.264 92.0083C284.928 105.886 282.99 117.887 281.091 130.533C280.407 137.036 277.919 144.373 280.464 150.592C282.269 153.948 285.479 153.417 289.126 151.559C337.83 116.466 422.302 50.1088 476.229 10.2C486.923 2.10447 501.075 -0.834189 514.542 0.1896C519.652 0.568782 525.104 1.47882 529.15 4.72082C537.66 12.1528 534.411 24.8743 533.234 35.3018C530.821 53.8627 528.77 69.7315 513.346 81.8084C494.483 97.8857 474.158 112.408 456.398 124.447C450.623 128.296 444.184 131.993 437.08 131.955C426.746 131.576 418.768 123.461 409.29 130.419C335.702 185.173 256.34 247.776 182.24 302.473C178.004 305.051 173.35 306.871 168.753 306.815H168.411V306.833Z" fill="#2756FF"/>
<path d="M596.108 313.829C584.483 313.829 572.554 313.829 561.556 313.754C537.603 314.72 520.222 305.525 524.705 278.584C533.804 229.689 539.749 187.619 543.301 150.459C546.378 128.542 546.321 97.0893 564.785 82.3771C572.269 76.3481 584.92 73.3905 595.899 72.5753C617.003 71.0396 637.271 72.1961 658.051 72.3478C683.6 72.8976 709.984 72.9165 735.438 72.7838C752.401 72.5184 771.89 79.2299 783.667 91.0224C813.109 119.044 800.383 172.319 791.379 212.341C788.131 226.03 787.219 239.188 784.104 252.611C779.488 270.925 764.577 288.14 747.348 299.041C726.795 312.54 707.249 314.265 683.372 313.602C654.404 313.678 625.456 313.829 596.488 313.81H596.108V313.829ZM638.866 268.29C649.484 272.119 667.701 270.413 675.09 265.313C681.738 260.592 682.194 251.473 683.657 243.851C688.824 212.891 693.648 182.197 698.568 151.729C699.499 141.643 706.299 125.149 696.004 118.437C685.86 113.129 664.149 114.987 656.437 121.888C650.624 127.045 649.485 135.69 648.212 143.141C642.342 180.168 636.682 214.692 631.059 249.577C629.805 256.782 630.66 265.313 638.505 268.157L638.847 268.309L638.866 268.29Z" fill="#2756FF"/>
<path d="M1108.13 312.256C1078.13 309.848 1075.99 288.822 1080.75 263.891C1090.54 204.872 1102.46 117.3 1110.18 79.5712C1111.68 71.5894 1115.1 64.9348 1122.94 60.195C1147.69 46.7531 1168.97 80.3485 1185.59 94.8333C1208.65 114.058 1207.62 140.619 1200.71 173.57C1196.05 197.933 1188.55 221.29 1187.35 245.842C1187.35 256.346 1197.48 257.578 1205.97 257.293C1238.55 257.256 1269.34 257.199 1302.07 257.123C1313.31 257.256 1332.9 256.402 1334.4 270.963C1334.43 280.916 1324.61 288.747 1317.13 296.008C1308.73 304.407 1298.72 311.403 1286.45 312.104C1227.74 312.881 1166.69 313.261 1108.51 312.275L1108.13 312.237V312.256Z" fill="#2756FF"/>
</g>
<defs>
<clipPath id="clip0_11020_14510">
<rect width="1478" height="314" fill="white"/>
</clipPath>
</defs>
</svg>
