<svg width="1578" height="402" viewBox="0 0 1578 402" fill="none" xmlns="http://www.w3.org/2000/svg">
<path d="M649.627 217.147C646.973 210.874 644.681 205.325 642.75 200.5C640.82 195.674 639.252 191.573 638.046 188.195C636.839 184.093 635.874 180.595 635.151 177.7H634.427C633.703 180.595 632.738 184.093 631.531 188.195C630.325 191.573 628.757 195.674 626.827 200.5C625.138 205.325 622.846 210.874 619.951 217.147L587.741 289.89H549.741L528.027 108.938H563.494L579.055 242.842H579.417C580.141 238.5 581.227 233.916 582.674 229.09C583.881 224.989 585.208 220.404 586.655 215.338C588.344 210.03 590.395 204.601 592.808 199.052L616.693 145.128H652.884L676.408 199.052C679.062 204.601 681.112 210.03 682.56 215.338C684.249 220.404 685.696 224.989 686.903 229.09C688.35 233.916 689.436 238.5 690.16 242.842H690.522L706.084 108.938H741.55L719.836 289.89H681.836L649.627 217.147ZM819.331 108.938V289.89H783.141V108.938H819.331ZM964.093 108.938C977.604 108.938 990.15 111.23 1001.73 115.814C1013.31 120.157 1023.2 126.43 1031.41 134.633C1039.85 142.595 1046.37 152.125 1050.95 163.224C1055.78 174.322 1058.19 186.385 1058.19 199.414C1058.19 212.443 1055.78 224.506 1050.95 235.604C1046.37 246.703 1039.85 256.233 1031.41 264.195C1023.2 272.157 1013.31 278.43 1001.73 283.014C990.15 287.598 977.604 289.89 964.093 289.89H873.617V108.938H964.093ZM909.807 257.319H964.093C972.296 257.319 979.775 255.871 986.531 252.976C993.528 250.081 999.439 246.1 1004.26 241.033C1009.33 235.966 1013.19 229.935 1015.85 222.938C1018.74 215.7 1020.19 207.858 1020.19 199.414C1020.19 190.97 1018.74 183.249 1015.85 176.252C1013.19 169.255 1009.33 163.224 1004.26 158.157C999.439 152.849 993.528 148.747 986.531 145.852C979.775 142.957 972.296 141.509 964.093 141.509H909.807V257.319ZM1188.39 293.509C1174.88 293.509 1162.33 291.217 1150.75 286.633C1139.17 281.807 1129.16 275.293 1120.71 267.09C1112.51 258.646 1106 248.633 1101.17 237.052C1096.59 225.471 1094.29 212.925 1094.29 199.414C1094.29 185.903 1096.59 173.357 1101.17 161.776C1106 150.195 1112.51 140.303 1120.71 132.1C1129.16 123.655 1139.17 117.141 1150.75 112.557C1162.33 107.732 1174.88 105.319 1188.39 105.319C1202.14 105.319 1214.69 107.611 1226.03 112.195C1237.37 116.779 1247.26 123.294 1255.7 131.738L1229.65 157.795C1224.82 152.246 1218.79 147.903 1211.55 144.767C1204.55 141.389 1196.83 139.7 1188.39 139.7C1180.19 139.7 1172.59 141.268 1165.59 144.405C1158.83 147.3 1152.92 151.401 1147.86 156.709C1143.03 162.017 1139.17 168.29 1136.27 175.528C1133.62 182.766 1132.29 190.728 1132.29 199.414C1132.29 208.1 1133.62 216.062 1136.27 223.3C1139.17 230.538 1143.03 236.811 1147.86 242.119C1152.92 247.427 1158.83 251.649 1165.59 254.785C1172.59 257.681 1180.19 259.128 1188.39 259.128C1201.66 259.128 1213.12 255.389 1222.77 247.909C1232.42 240.189 1238.93 230.055 1242.31 217.509H1188.39V184.938H1281.4C1282.12 189.522 1282.48 194.347 1282.48 199.414C1282.48 212.925 1280.07 225.471 1275.25 237.052C1270.66 248.633 1264.15 258.646 1255.7 267.09C1247.5 275.293 1237.61 281.807 1226.03 286.633C1214.45 291.217 1201.9 293.509 1188.39 293.509ZM1363.95 108.938V257.319H1472.53V289.89H1327.76V108.938H1363.95ZM1550.21 108.938V289.89H1514.02V108.938H1550.21Z" fill="#2756FF"/>
<path d="M374.493 160.423C372.982 157.267 373.196 154.15 375.162 151.074C376.673 154.204 376.446 157.32 374.493 160.423Z" fill="#2756FF"/>
<path d="M372.567 226.203C373.664 209.109 371.497 191.855 373.891 174.855C374.533 191.815 373.784 208.788 374.453 225.748L374.319 227.3C373.878 227.032 373.008 226.484 372.567 226.203Z" fill="#2756FF"/>
<path d="M374.453 225.748C378.118 236.127 376.086 247.348 378.052 258.048C377.424 257.701 376.166 257.005 375.538 256.657C373.785 246.974 373.971 237.104 374.319 227.3L374.453 225.748Z" fill="#2756FF"/>
<path d="M376.42 269.003C376.5 268.214 377.062 263.345 377.998 266.061C378.185 268.107 381.088 274.42 376.794 271.451C376.701 270.835 376.514 269.618 376.42 269.003Z" fill="#2756FF"/>
<path d="M391.722 58.9456C404.468 64.8708 416.118 72.8425 428.611 79.2893C430.135 80.5332 432.369 81.8039 431.647 84.1847C427.393 108.982 423.394 133.954 422.297 159.113C419.435 184.833 421.736 210.848 420.933 236.689C423.046 259.922 424.411 283.422 429.039 306.347C418.566 296.704 409.19 284.492 406.22 270.127C403.84 263.533 403.826 256.484 402.716 249.65C400.991 243.805 401.793 237.732 402.034 231.78C396.497 230.804 401.726 222.953 397.781 219.863C394.544 219.488 396.751 213.617 393.139 216.385C392.805 212.547 389.929 209.805 388.405 206.434C382.667 203.88 374.12 201.044 376.875 192.537C376.487 160.892 379.617 129.273 383.977 97.9478C386.545 85.0006 387.482 71.2909 391.722 58.9456Z" fill="#2756FF"/>
<path d="M423.902 178.132C423.501 173.451 423.755 168.73 424.678 164.129C425.226 168.823 424.892 173.491 423.902 178.132Z" fill="#2756FF"/>
<path d="M423.955 228.29C425.708 231.861 424.678 235.833 424.704 239.712C422.966 236.141 423.848 232.088 423.955 228.29Z" fill="#2756FF"/>
<path d="M378.213 273.912L379.35 274.367C382.252 297.118 385.181 319.936 390.532 342.273C397.46 342.46 402.195 332.75 409.257 335.117C405.124 339.531 398.971 341.256 394.277 345.028C392.939 346.513 390.919 346.259 389.127 346.352C388.82 345.67 388.191 344.306 387.87 343.624C384.125 331.546 383.643 318.692 380.835 306.387C378.748 298.589 378.427 290.444 377.772 282.445C377.879 280.319 378.106 276.052 378.213 273.912Z" fill="#2756FF"/>
<path d="M390.317 54.839C405.03 63.2253 420.077 71.13 434.201 80.4927C434.91 86.03 432.864 91.5674 432.329 97.0245C428.289 119.201 426.27 141.672 424.678 164.129C423.755 168.73 423.501 173.451 423.902 178.132C423.501 194.838 423.447 211.57 423.955 228.29C423.848 232.088 422.966 236.141 424.704 239.712C425.775 266.904 429.707 293.948 434.495 320.712C426.577 324.992 419.502 331.091 411.41 334.783C410.875 334.863 409.792 335.037 409.257 335.117C402.195 332.75 397.46 342.46 390.532 342.273C385.181 319.936 382.252 297.118 379.35 274.367L378.213 273.912C378.106 276.052 377.879 280.319 377.772 282.445C377.303 278.74 377.022 275.129 376.794 271.451C381.088 274.42 378.185 268.107 377.998 266.061C377.062 263.345 376.5 268.214 376.42 269.003C375.724 264.884 375.484 260.804 375.538 256.657C376.166 257.005 377.424 257.701 378.052 258.048C376.086 247.348 378.118 236.127 374.453 225.748C373.784 208.788 374.533 191.815 373.891 174.855C374.266 170.054 374.266 165.212 374.493 160.423C376.446 157.32 376.673 154.204 375.162 151.074C378.359 120.779 381.944 90.4706 388.123 60.6171C388.632 58.6242 389.14 56.5778 390.317 54.839ZM391.722 58.9456C387.482 71.2909 386.545 85.0006 383.977 97.9478C379.617 129.273 376.487 160.892 376.875 192.537C374.12 201.044 382.667 203.88 388.405 206.434C389.929 209.805 392.805 212.547 393.139 216.385C396.751 213.617 394.544 219.488 397.781 219.863C401.726 222.953 396.497 230.804 402.034 231.78C401.793 237.732 400.991 243.805 402.716 249.65C403.826 256.484 403.84 263.533 406.22 270.127C409.19 284.492 418.566 296.704 429.039 306.347C424.411 283.422 423.046 259.922 420.933 236.689C421.736 210.848 419.435 184.833 422.297 159.113C423.394 133.954 427.393 108.982 431.647 84.1847C432.369 81.8039 430.135 80.5332 428.611 79.2893C416.118 72.8425 404.468 64.8708 391.722 58.9456Z" fill="#2756FF"/>
<path d="M221.925 257.859C225.548 265.021 227.956 272.714 231.28 280.021C231.524 281.117 232.077 282.477 230.912 283.289C220.24 292.908 209.621 302.694 200.237 313.59C189.863 324.115 181.701 336.595 172.208 347.902C164.945 359.068 157.251 370.091 151.224 382.008C149.936 373.982 150.046 365.191 153.791 357.699C155.054 353.9 157.539 350.734 159.457 347.276C160.749 344.045 163.255 341.605 165.466 339.021C163.328 336.626 168.448 334.953 167.771 332.172C166.451 330.86 169.516 329.007 166.918 328.972C168.125 327.132 167.804 324.886 168.312 322.836C166.641 319.662 163.81 315.37 168.052 312.528C179.062 298.198 191.641 285.123 204.668 272.615C210.395 267.715 215.661 261.897 221.925 257.859Z" fill="#2756FF"/>
<path d="M194.235 322.688C195.709 320.447 197.492 318.419 199.532 316.682C198.119 318.981 196.319 320.956 194.235 322.688Z" fill="#2756FF"/>
<path d="M176.533 345.202C176.057 347.423 174.191 348.841 172.832 350.59C173.314 348.374 175.142 346.868 176.533 345.202Z" fill="#2756FF"/>
<path d="M139.892 349.498L140.241 350.103C133.502 361.333 126.751 372.602 121.257 384.511C124.298 387.044 129.853 384.362 132.184 387.92C128.77 388.439 125.401 387.038 121.962 387.071C120.838 387.264 120.022 386.436 119.185 385.845C119.288 385.43 119.488 384.596 119.585 384.176C122.174 377.436 126.501 371.501 129.59 364.989C131.41 360.755 134.145 356.988 136.678 353.169C137.478 352.253 139.088 350.42 139.892 349.498Z" fill="#2756FF"/>
<path d="M222.747 255.521C226.382 264.482 230.337 273.345 233.362 282.536C231.723 285.27 228.848 287.03 226.68 289.289C217.031 297.807 208.183 307.172 199.532 316.682C197.492 318.419 195.709 320.447 194.235 322.688C188.151 330.039 182.214 337.524 176.533 345.202C175.142 346.868 173.314 348.374 172.832 350.59C163.702 363.164 155.907 376.683 148.595 390.379C143.531 389.5 138.202 389.735 133.268 388.531C133 388.378 132.452 388.073 132.184 387.92C129.853 384.362 124.298 387.044 121.257 384.511C126.751 372.602 133.502 361.333 140.241 350.103L139.892 349.498C139.088 350.42 137.478 352.253 136.678 353.169C137.778 351.342 138.928 349.623 140.126 347.893C141.002 350.742 141.932 346.884 142.571 345.9C143.111 344.352 141.138 346.337 140.823 346.662C141.967 344.569 143.301 342.654 144.79 340.814C144.95 341.192 145.268 341.948 145.427 342.326C148.327 336.832 153.204 332.518 155.229 326.567C160.923 318.724 167.258 311.377 172.964 303.543C174.829 301.522 176.54 299.35 178.334 297.283C180.307 296.582 181.51 295.264 181.939 293.326C194.079 280.869 206.399 268.542 219.721 257.337C220.653 256.623 221.604 255.884 222.747 255.521ZM221.925 257.859C215.661 261.897 210.395 267.715 204.668 272.615C191.641 285.123 179.062 298.198 168.052 312.528C163.81 315.37 166.641 319.662 168.312 322.836C167.804 324.886 168.125 327.132 166.918 328.972C169.516 329.007 166.451 330.86 167.771 332.172C168.448 334.953 163.328 336.626 165.466 339.021C163.255 341.605 160.749 344.045 159.457 347.276C157.539 350.734 155.054 353.9 153.791 357.699C150.046 365.191 149.936 373.982 151.224 382.008C157.251 370.091 164.945 359.068 172.208 347.902C181.701 336.595 189.863 324.115 200.237 313.59C209.621 302.694 220.24 292.908 230.912 283.289C232.077 282.477 231.524 281.117 231.28 280.021C227.956 272.714 225.548 265.021 221.925 257.859Z" fill="#2756FF"/>
<path d="M224.274 257.859C220.652 265.021 218.244 272.714 214.919 280.021C214.675 281.117 214.123 282.477 215.288 283.289C225.96 292.908 236.579 302.694 245.962 313.59C256.336 324.115 264.499 336.595 273.992 347.902C281.255 359.068 288.949 370.091 294.975 382.008C296.264 373.982 296.153 365.191 292.408 357.699C291.146 353.9 288.66 350.734 286.743 347.276C285.451 344.045 282.945 341.605 280.733 339.021C282.872 336.626 277.751 334.953 278.429 332.172C279.748 330.86 276.683 329.007 279.281 328.972C278.075 327.132 278.395 324.886 277.888 322.836C279.559 319.662 282.39 315.37 278.148 312.528C267.137 298.198 254.559 285.123 241.532 272.615C235.804 267.715 230.539 261.897 224.274 257.859Z" fill="#2756FF"/>
<path d="M251.965 322.688C250.49 320.447 248.707 318.419 246.667 316.682C248.081 318.981 249.88 320.956 251.965 322.688Z" fill="#2756FF"/>
<path d="M269.667 345.202C270.143 347.423 272.009 348.841 273.368 350.59C272.885 348.374 271.057 346.868 269.667 345.202Z" fill="#2756FF"/>
<path d="M306.308 349.498L305.958 350.103C312.698 361.333 319.448 372.602 324.943 384.511C321.902 387.044 316.346 384.362 314.016 387.92C317.429 388.439 320.799 387.038 324.237 387.071C325.362 387.264 326.178 386.436 327.015 385.845C326.912 385.43 326.711 384.596 326.614 384.177C324.025 377.436 319.699 371.501 316.609 364.989C314.789 360.755 312.054 356.988 309.522 353.169C308.722 352.253 307.112 350.42 306.308 349.498Z" fill="#2756FF"/>
<path d="M223.453 255.521C219.818 264.482 215.863 273.345 212.837 282.536C214.476 285.27 217.351 287.03 219.52 289.289C229.169 297.807 238.017 307.172 246.667 316.682C248.707 318.419 250.49 320.447 251.965 322.688C258.049 330.039 263.986 337.524 269.667 345.202C271.057 346.868 272.885 348.374 273.368 350.59C282.498 363.164 290.293 376.683 297.604 390.379C302.668 389.5 307.997 389.735 312.931 388.531C313.2 388.378 313.747 388.073 314.016 387.92C316.346 384.362 321.902 387.044 324.943 384.511C319.448 372.602 312.698 361.333 305.958 350.103L306.308 349.498C307.112 350.42 308.722 352.253 309.522 353.169C308.422 351.342 307.271 349.623 306.073 347.893C305.197 350.742 304.268 346.884 303.628 345.9C303.089 344.352 305.061 346.337 305.376 346.662C304.232 344.569 302.898 342.654 301.409 340.813C301.25 341.192 300.932 341.948 300.773 342.326C297.873 336.832 292.995 332.518 290.97 326.567C285.276 318.724 278.942 311.377 273.236 303.543C271.371 301.522 269.659 299.35 267.865 297.283C265.893 296.582 264.689 295.264 264.261 293.326C252.12 280.869 239.801 268.542 226.478 257.337C225.546 256.623 224.595 255.884 223.453 255.521ZM224.274 257.859C230.539 261.897 235.804 267.715 241.532 272.615C254.559 285.123 267.137 298.198 278.148 312.528C282.39 315.37 279.559 319.662 277.888 322.836C278.395 324.886 278.075 327.132 279.281 328.972C276.683 329.007 279.748 330.86 278.429 332.172C277.751 334.953 282.872 336.626 280.733 339.021C282.945 341.605 285.451 344.045 286.743 347.276C288.66 350.734 291.146 353.9 292.408 357.699C296.153 365.191 296.264 373.982 294.975 382.008C288.949 370.091 281.255 359.068 273.992 347.902C264.499 336.595 256.336 324.115 245.962 313.59C236.579 302.694 225.96 292.908 215.288 283.289C214.123 282.477 214.675 281.117 214.919 280.021C218.244 272.714 220.652 265.021 224.274 257.859Z" fill="#2756FF"/>
<path d="M42.7738 58.9455C30.0272 64.8707 18.3773 72.8423 5.88485 79.2892C4.36008 80.5331 2.12647 81.8038 2.84873 84.1845C7.10205 108.982 11.1012 133.954 12.198 159.113C15.0603 184.833 12.7597 210.848 13.5622 236.689C11.4489 259.922 10.0847 283.422 5.45684 306.347C15.9296 296.704 25.3057 284.492 28.275 270.127C30.6558 263.533 30.6691 256.484 31.7793 249.65C33.5047 243.805 32.7022 237.732 32.4614 231.78C37.9988 230.804 32.769 222.953 36.7147 219.863C39.9515 219.488 37.7447 213.617 41.356 216.385C41.6904 212.547 44.566 209.805 46.0908 206.434C51.8288 203.879 60.3756 201.044 57.6203 192.537C58.0081 160.891 54.8783 129.272 50.518 97.9476C47.95 85.0004 47.0137 71.2908 42.7738 58.9455Z" fill="#2756FF"/>
<path d="M10.5933 178.132C10.9945 173.451 10.7404 168.73 9.81748 164.128C9.26909 168.823 9.6035 173.491 10.5933 178.132Z" fill="#2756FF"/>
<path d="M10.5399 228.289C8.78777 231.861 9.81758 235.833 9.79083 239.712C11.5296 236.141 10.6469 232.088 10.5399 228.289Z" fill="#2756FF"/>
<path d="M56.2824 273.912L55.1455 274.367C52.2431 297.118 49.3139 319.936 43.9638 342.273C37.0354 342.46 32.3006 332.749 25.2385 335.117C29.3715 339.531 35.524 341.256 40.2187 345.028C41.5562 346.513 43.5759 346.258 45.3682 346.352C45.6758 345.67 46.3045 344.306 46.6255 343.623C50.3706 331.546 50.852 318.692 53.6608 306.387C55.7474 298.589 56.0684 290.444 56.7238 282.445C56.6168 280.319 56.3894 276.052 56.2824 273.912Z" fill="#2756FF"/>
<path d="M44.1783 54.8389C29.4656 63.2251 14.4185 71.1299 0.294216 80.4925C-0.414671 86.0299 1.63177 91.5672 2.16678 97.0243C6.2061 119.2 8.22583 141.671 9.81748 164.128C10.7404 168.73 10.9945 173.451 10.5933 178.132C10.9945 194.838 11.0482 211.57 10.5399 228.289C10.6469 232.088 11.5296 236.141 9.79083 239.712C8.72082 266.904 4.78833 293.948 0 320.712C7.91814 324.992 14.9936 331.091 23.0856 334.782C23.6206 334.863 24.7035 335.037 25.2385 335.117C32.3006 332.749 37.0354 342.46 43.9638 342.273C49.3139 319.936 52.2431 297.118 55.1455 274.367L56.2824 273.912C56.3894 276.052 56.6168 280.319 56.7238 282.445C57.1919 278.74 57.4733 275.129 57.7007 271.451C53.4073 274.42 56.3097 268.107 56.497 266.06C57.4332 263.345 57.995 268.214 58.0752 269.003C58.7707 264.883 59.0115 260.804 58.958 256.658C58.3294 257.005 57.0721 257.701 56.4434 258.049C58.4096 247.349 56.3766 236.127 60.0414 225.747C60.7101 208.788 59.9611 191.815 60.6031 174.855C60.2286 170.053 60.2286 165.211 60.0013 160.423C58.0485 157.32 57.8211 154.203 59.3325 151.074C56.1358 120.779 52.5513 90.4705 46.3719 60.6169C45.8636 58.624 45.3554 56.5776 44.1783 54.8389ZM42.7738 58.9455C47.0137 71.2908 47.95 85.0004 50.518 97.9476C54.8783 129.272 58.0081 160.891 57.6203 192.537C60.3756 201.044 51.8288 203.879 46.0908 206.434C44.566 209.805 41.6904 212.547 41.356 216.385C37.7447 213.617 39.9515 219.488 36.7147 219.863C32.769 222.953 37.9988 230.804 32.4614 231.78C32.7022 237.732 33.5047 243.805 31.7793 249.65C30.6691 256.484 30.6558 263.533 28.275 270.127C25.3057 284.492 15.9296 296.704 5.45684 306.347C10.0847 283.422 11.4489 259.922 13.5622 236.689C12.7597 210.848 15.0603 184.833 12.198 159.113C11.1012 133.954 7.10205 108.982 2.84873 84.1845C2.12647 81.8038 4.36008 80.5331 5.88485 79.2892C18.3773 72.8423 30.0272 64.8707 42.7738 58.9455Z" fill="#2756FF"/>
<path d="M334.635 27.2327L335.357 26.457C333.538 44.5269 327.305 61.9414 325.928 80.0916C322.33 80.1451 325.821 71.7856 322.678 69.1908C323.721 59.9619 320.711 50.5056 325.058 41.7716C327.185 36.261 331.131 31.8739 334.635 27.2327Z" fill="#2756FF"/>
<path d="M319.561 170.094C319.427 164.516 319.12 158.912 320.39 153.442C320.564 159.006 320.899 164.597 319.561 170.094Z" fill="#2756FF"/>
<path d="M268.762 178.132C268.588 172.555 268.267 166.951 269.511 161.467C269.739 167.031 270.086 172.635 268.762 178.132Z" fill="#2756FF"/>
<path d="M318.064 185.85H319.334C319.388 196.657 319.415 207.491 318.973 218.311C316.164 207.825 318.879 196.563 318.064 185.85Z" fill="#2756FF"/>
<path d="M264.402 214.085C265.78 213.63 267.158 213.149 268.522 212.627C268.589 221.201 268.589 229.787 267.974 238.361C266.663 230.282 265.526 222.19 264.402 214.085Z" fill="#2756FF"/>
<path d="M293.24 5.06956C292.812 -0.33403 297.788 1.48501 300.891 3.04991C297.948 4.11993 294.016 1.63213 294.979 6.66122C294.538 6.25996 293.668 5.45744 293.24 5.06956Z" fill="#2756FF"/>
<path d="M278.153 81.1478C279.57 84.0368 279.677 87.0998 278.474 90.3366C275.772 107.363 274.474 124.577 272.695 141.724C272.267 165.546 268.803 189.688 272.883 213.375C281.269 216.318 288.438 221.614 294.965 227.553C296.423 230.482 297.841 233.398 300.676 235.271C308.461 244.941 314.734 256.109 316.874 268.495L317.971 269.003C315.764 239.537 316.901 209.938 316.66 180.405C319.268 180.325 317.422 184.231 318.064 185.85C318.879 196.563 316.164 207.825 318.973 218.311C319.201 223.421 319.402 228.556 319.589 233.692C319.669 253.34 321.569 273.122 324.805 292.476C326.705 320.551 333.566 348.05 339.224 375.55C329.968 382.037 319.455 386.678 309.932 392.831C304.903 395.987 299.954 399.759 294.123 401.217C291.635 397.445 292.13 392.443 290.551 388.35C281.082 348.532 274.274 308.018 271.264 267.211C270.154 271.504 276.4 283.328 273.765 268.775C272.441 255.467 272 242.105 271.064 228.757L269.86 228.57C269.74 234.428 269.766 240.326 269.659 246.211C268.268 243.817 267.586 241.116 267.974 238.361C268.589 229.787 268.589 221.201 268.522 212.627C268.549 201.124 268.321 189.608 268.762 178.132C270.086 172.635 269.739 167.031 269.511 161.467C269.886 157.534 271.064 153.708 271.184 149.749C272.013 126.744 275.718 103.993 278.153 81.1478ZM279.102 306.199C282.54 336.842 288.438 367.15 295.433 397.164C298.189 397.017 300.436 395.158 302.816 393.954C313.463 387.119 324.725 381.101 335.238 374.186C333.178 360.021 328.671 346.084 327.159 331.746C326.611 331.693 325.514 331.599 324.966 331.545C326.397 334.796 323.12 337.444 323.107 340.721C319.83 338.527 320.071 344.733 316.432 344.479C312.781 343.289 307.498 345.897 305.344 341.51C296.356 337.805 293.093 328.924 288.171 321.447C286.311 321.153 286.097 320.11 286.82 318.612C280.868 317.274 282.673 308.808 279.102 306.199Z" fill="#2756FF"/>
<path d="M270.088 247.175C273.017 252.618 270.088 259.266 270.837 265.084C268.469 259.44 270.596 253.046 270.088 247.175Z" fill="#2756FF"/>
<path d="M294.979 6.66122C294.016 1.63213 297.948 4.11993 300.891 3.04991C304.168 4.30718 307.043 6.39347 310.199 7.91824C312.888 10.085 315.937 11.7168 319.067 13.1613C323.575 15.93 327.988 18.9127 332.696 21.3737C336.161 23.6475 342.915 25.2927 338.822 31.5389C334.395 52.8456 329.406 74.0721 326.584 95.6731C323.869 114.853 322.504 134.195 320.39 153.442C319.12 158.912 319.427 164.516 319.561 170.094C319.347 173.959 319.308 177.784 319.375 181.689C319.361 182.719 319.348 184.807 319.334 185.85H318.064C317.422 184.231 319.268 180.325 316.66 180.405C316.901 209.938 315.764 239.537 317.971 269.003L316.874 268.495C314.734 256.109 308.461 244.941 300.676 235.271C297.841 233.398 296.423 230.482 294.965 227.553C288.438 221.614 281.269 216.318 272.883 213.375C268.803 189.688 272.267 165.546 272.695 141.724C274.474 124.577 275.772 107.363 278.474 90.3366C279.677 87.0998 279.57 84.0368 278.153 81.1478C280.293 60.9913 285.094 41.2359 289.254 21.4138C290.685 15.9969 291.769 10.4732 293.24 5.06956C293.668 5.45744 294.538 6.25996 294.979 6.66122ZM334.635 27.2327C331.131 31.8739 327.185 36.261 325.058 41.7716C320.711 50.5056 323.721 59.9619 322.678 69.1908C325.821 71.7856 322.33 80.1451 325.928 80.0916C327.305 61.9414 333.538 44.5269 335.357 26.457L334.635 27.2327Z" fill="#2756FF"/>
<path d="M279.102 306.199C282.673 308.808 280.868 317.274 286.82 318.612C286.097 320.11 286.311 321.153 288.171 321.447C293.093 328.924 296.356 337.805 305.344 341.51C307.498 345.897 312.781 343.289 316.432 344.479C320.071 344.733 319.83 338.527 323.107 340.721C323.12 337.444 326.397 334.796 324.966 331.545C325.514 331.599 326.611 331.693 327.159 331.746C328.671 346.084 333.178 360.021 335.238 374.186C324.725 381.101 313.463 387.119 302.816 393.954C300.436 395.158 298.189 397.017 295.433 397.164C288.438 367.15 282.54 336.842 279.102 306.199Z" fill="#2756FF"/>
<path d="M269.86 228.57L271.064 228.757C272 242.105 272.441 255.467 273.765 268.775C276.4 283.328 270.154 271.504 271.264 267.211C271.157 266.676 270.944 265.619 270.837 265.084C270.088 259.266 273.017 252.618 270.088 247.175L269.659 246.211C269.766 240.326 269.74 234.428 269.86 228.57Z" fill="#2756FF"/>
<path d="M125.781 154.725C127.279 158.363 126.476 162.282 126.463 166.147C124.617 162.603 125.66 158.523 125.781 154.725Z" fill="#2756FF"/>
<path d="M176.54 165.425C178.239 169.01 177.262 172.982 177.262 176.848C175.51 173.277 176.447 169.224 176.54 165.425Z" fill="#2756FF"/>
<path d="M148.412 168.636C152.759 166.884 147.73 171.726 151.743 171.632C154.056 173.304 151.087 176.822 154.525 176.915C153.16 184.151 158.831 190.197 156.772 197.446C157.587 204.388 159.099 211.343 159.299 218.338C158.51 221 161.921 223.006 160.998 225.548C159.313 228.945 163.406 232.115 162.242 235.646C163.834 242.24 165.091 249.168 167.512 255.682C166.241 262.222 171.939 267.586 170.882 274.14C169.893 293.427 166.683 312.513 164.034 331.627C158.711 331.078 160.583 322.371 156.691 319.121C148.131 293.026 145.229 265.433 143.824 238.094C142.059 230.63 145.202 222.966 143.383 215.57C144.721 213.47 145.108 211.263 144.279 208.909C149.455 209.417 142.835 201.887 145.47 200.549C147.65 194.597 144.48 188.324 145.737 182.279C147.89 181.61 151.555 178.935 146.994 178.868C147.409 175.431 147.115 171.926 148.412 168.636Z" fill="#2756FF"/>
<path d="M127.064 189.501C129.713 197.312 127.265 205.926 127.867 214.004L126.77 213.977C126.717 205.819 126.717 197.646 127.064 189.501Z" fill="#2756FF"/>
<path d="M176.486 236.983C176.072 232.756 176.446 228.476 177.329 224.343C177.69 228.583 177.235 232.77 176.486 236.983Z" fill="#2756FF"/>
<path d="M125.647 250.358C125.259 246.119 125.647 241.852 126.463 237.705C126.891 241.945 126.422 246.145 125.647 250.358Z" fill="#2756FF"/>
<path d="M106.963 24.5569C121.702 16.6522 135.893 7.73088 150.713 0C156.451 13.1345 157.334 27.9007 161.052 41.6772C162.951 53.113 164.984 64.5221 167.245 75.891C168.141 80.0775 162.764 84.4512 164.864 74.0185C161.079 50.4514 155.582 27.0848 149.282 4.09282C136.508 10.339 124.698 18.3508 112.433 25.5065C112.647 31.6859 114.76 37.6379 115.322 43.7905C115.081 53.22 117.556 62.4356 119.188 71.6778C132.563 154.417 133.272 239.189 121.073 322.129C116.553 341.322 128.095 358.951 132.121 377.115C132.911 387.4 141.444 394.115 150.472 397.164C153.495 386.089 155.515 374.72 159.019 363.793C159.46 364.141 160.316 364.863 160.744 365.211C158.457 376.66 156.357 388.229 153.027 399.424C151.128 403.544 146.446 399.558 144.012 397.98C139.678 394.93 134.85 392.683 130.69 389.393C127.601 381.97 117.034 380.391 110.989 375.215C110.066 362.629 117.315 350.444 115.041 337.939C116.071 327.252 119.014 316.806 119.963 306.092C122.157 287.541 124.978 269.03 125.647 250.358C126.422 246.145 126.891 241.945 126.463 237.705C126.596 232.917 126.691 228.195 126.972 223.433C128.831 220.263 129.138 217.121 127.867 214.004C127.265 205.926 129.713 197.312 127.064 189.501C126.677 181.716 126.811 173.918 126.463 166.147C126.476 162.282 127.279 158.363 125.781 154.725C123.775 126.958 120.284 99.3378 115.79 71.8785C113.985 55.8951 108.314 40.5671 106.963 24.5569Z" fill="#2756FF"/>
<path d="M112.433 25.5065C124.698 18.3508 136.508 10.339 149.282 4.09282C155.582 27.0848 161.079 50.4514 164.864 74.0185C162.764 84.4512 168.141 80.0775 167.245 75.891C171.926 105.557 174.828 135.451 176.54 165.425C176.447 169.224 175.51 173.277 177.262 176.848C177.597 192.671 177.918 208.52 177.329 224.343C176.446 228.476 176.072 232.756 176.486 236.983C176.299 247.028 175.979 257.085 175.203 267.117C173.798 294.951 169.465 322.637 164.289 350.003C162.844 355.005 161.788 360.101 160.744 365.211C160.316 364.863 159.46 364.141 159.019 363.793C155.515 374.72 153.495 386.089 150.472 397.164C141.444 394.115 132.911 387.4 132.121 377.115C128.095 358.951 116.553 341.322 121.073 322.129C133.272 239.189 132.563 154.417 119.188 71.6778C117.556 62.4356 115.081 53.22 115.322 43.7905C114.76 37.6379 112.647 31.6859 112.433 25.5065ZM148.412 168.636C147.115 171.926 147.409 175.431 146.994 178.868C151.555 178.935 147.89 181.61 145.737 182.279C144.48 188.324 147.65 194.597 145.47 200.549C142.835 201.887 149.455 209.417 144.279 208.909C145.108 211.263 144.721 213.47 143.383 215.57C145.202 222.966 142.059 230.63 143.824 238.094C145.229 265.433 148.131 293.026 156.691 319.121C160.583 322.371 158.711 331.078 164.034 331.627C166.683 312.513 169.893 293.427 170.882 274.14C171.939 267.586 166.241 262.222 167.512 255.682C165.091 249.168 163.834 242.24 162.242 235.646C163.406 232.115 159.313 228.945 160.998 225.548C161.921 223.006 158.51 221 159.299 218.338C159.099 211.343 157.587 204.388 156.772 197.446C158.831 190.197 153.16 184.151 154.525 176.915C151.087 176.822 154.056 173.304 151.743 171.632C147.73 171.726 152.759 166.884 148.412 168.636Z" fill="#2756FF"/>
<path d="M126.77 213.977L127.867 214.004C129.138 217.121 128.831 220.263 126.972 223.433C126.918 221.066 126.824 216.345 126.77 213.977Z" fill="#2756FF"/>
<path d="M115.041 337.939C117.315 350.444 110.066 362.629 110.989 375.215C117.034 380.391 127.601 381.97 130.69 389.393C121.916 386.986 115.162 380.418 106.882 376.807C107.11 374.76 107.698 372.794 108.113 370.788C110.801 359.941 113.784 349.053 115.041 337.939Z" fill="#2756FF"/>
</svg>
