<svg width="1159" height="628" viewBox="0 0 1159 628" fill="none" xmlns="http://www.w3.org/2000/svg">
<path d="M419.679 203.419C402.434 202.998 388.992 214.004 380.673 228.344C373.972 239.917 368.736 251.853 362.869 263.992C354.194 282.969 344.442 301.849 335.88 320.851C331.34 331.015 327.035 341.252 322.244 351.287C319.056 358.352 315.487 365.295 312.177 372.344C308.358 380.024 304.149 388.796 302.118 397.156C298.493 411.536 303.494 426.24 314.823 435.571C330.685 448.422 353.708 451.319 368.485 435.239C376.902 426.548 383.602 415.437 389.364 405.135C394.463 395.998 399.14 386.684 403.413 377.151C411.926 359.315 418.077 341.074 425.376 322.769C431.203 308.194 438.179 294.169 445.81 280.412C452.454 268.208 460.757 255.544 460.142 241.114C459.195 219.313 440.833 204.423 419.8 203.403H419.679V203.419Z" fill="#2756FF"/>
<path d="M306.141 196.735C288.216 195.327 274.887 208.097 266.657 222.696C256.468 240.71 248.02 259.671 239.701 278.551C234.117 290.479 229.989 305.07 220.788 314.87C212.898 323.125 205.064 317.929 203.502 308.105C200.33 284.855 217.721 264.413 221.419 242.102C223.701 230.076 221.727 217.193 214.274 207.215C204.741 193.409 185.537 186.053 169.975 193.894C158.216 199.405 150.65 210.897 145.009 222.21C137.346 237.789 130.313 253.69 123.37 269.6C117.915 281.61 113.926 294.388 107.257 305.774C101.892 315.324 90.9427 319.062 87.0098 306.527C84.0883 296.824 87.471 285.559 91.2017 276.293C100.16 254.985 111.555 229.478 99.7232 207.126C91.5011 190.852 71.3021 177.288 53.4256 186.206C35.7999 195.294 27.3675 214.862 18.765 231.743C12.7361 244.562 6.10016 256.847 2.22382 270.474C-4.97858 296.087 6.35912 318.018 21.2414 338.226C31.964 353.585 43.6254 368.006 55.8776 382.209C73.9321 402.294 93.2006 431.185 123.167 429.607C153.304 428.425 153.264 376.568 181.887 398.669C191.809 406.778 199.691 418.156 209.976 425.609C224.907 437.619 245.147 439.804 259.034 424.978C268.907 414.352 274.596 400.684 280.511 387.615C289.68 367.464 299.149 347.532 308.568 327.519C314.573 314.838 320.424 302.205 326.736 289.654C333.251 276.075 341.926 262.77 344.888 247.751C349.695 223.125 331.656 198.264 306.286 196.735H306.157H306.141Z" fill="#2756FF"/>
<path d="M1007.1 234.568C1017.9 201 1030.95 167.634 1045.72 135.563C1053.53 118.132 1061.7 100.692 1070.19 83.6734C1079.3 64.146 1095.31 42.903 1088.52 20.3571C1082.93 2.9985 1061.3 -3.98539 1045.03 2.2378C1027 8.74423 1016.73 26.0785 1007.52 41.9562C1000.02 54.6858 993.242 67.9333 986.193 80.9462C977.024 97.9973 969.425 115.785 961.988 133.597C954.802 150.429 947.713 167.076 941.53 184.386C929.885 216.416 919.688 248.98 906.57 280.461C892.246 316.634 874.815 351.457 856.963 385.956C846.24 406.891 844.346 432.82 869.409 443.599C882.81 449.296 898.866 446.172 909.945 437.101C919.049 429.858 925.304 419.791 930.896 409.748C947.664 377.45 964.214 344.57 978.837 311.229C989.22 286.069 998.534 260.529 1007.05 234.697L1007.09 234.576L1007.1 234.568Z" fill="#2756FF"/>
<path d="M1076.63 175.678C1045.39 180.348 1033.97 217.622 1022.58 242.628C1011 268.735 1002.24 295.82 991.84 322.364C986.256 337.214 979.879 351.586 972.92 365.829C963.937 384.588 954.112 402.991 967.797 422.469C979.483 438.93 1004.89 440.475 1020.4 428.798C1029.18 422.607 1034.91 413.228 1039.85 403.824C1044.81 394.833 1049.46 386.296 1053.41 377.046C1059.52 362.641 1065.22 348.204 1070.99 333.726C1081.49 303.775 1091.27 273.517 1105.37 244.951C1112.23 228.466 1120.8 208.129 1111.25 191.232C1104.26 180.089 1089.7 174.116 1076.76 175.67L1076.63 175.686L1076.63 175.678Z" fill="#2756FF"/>
<path d="M559.955 456.118C583.756 455.689 596.413 431.177 606.399 412.855C615.074 396.767 622.746 380.445 630.725 363.823C653.384 318.027 670.654 269.641 689.688 222.283C699.981 196.824 711.934 172.053 723.911 147.427C730.377 134.107 737.393 120.325 744.272 107.053C751.693 93.3119 759.907 79.9106 760.74 63.9601C762.327 37.8535 733.485 20.681 710.405 31.0962C689.809 40.1599 678.245 65.8619 667.36 84.4829C655.585 105.621 645.453 127.681 635.856 149.879C613.593 199.94 620.731 207.968 561.234 212.346C524.437 215.202 494.996 216.101 479.272 255.277C470.832 276.164 459.154 295.626 452.535 317.412C448.504 330.594 450.43 344.748 457.6 356.563C468.898 376.406 486.726 391.653 500.305 409.845C515.851 429.008 532.578 455.333 559.826 456.118H559.947H559.955ZM532.222 340.613C530.596 332.561 533.072 324.355 536.277 316.877C538.656 311.205 541.375 305.548 544.555 300.312C548.521 293.466 553.862 287.259 560.619 283.188C567.676 278.632 582.299 275.249 584.63 286.247C585.924 294.858 579.944 305.953 576.513 314.563C571.058 325.779 562.772 344.562 552.947 351.846C543.414 358.821 534.075 351.15 532.255 340.759L532.23 340.629L532.222 340.613Z" fill="#2756FF"/>
<path d="M817.671 417.743C830.975 383.722 845.429 349.709 861.671 316.869C867.619 304.981 873.761 292.802 880.178 281.076C886.312 269.681 893.669 258.57 897.472 246.205C904.351 225.14 892.511 202.942 871.422 196.403C855.188 191.459 837.967 193.514 821.208 194.493C808.519 195.408 795.862 196.274 783.189 197.277C767.789 198.596 752.526 198.863 738.089 204.504C707.952 216.635 695.635 253.092 682.8 280.445C663.386 320.584 664.487 342.717 695.724 375.702C705.759 387.226 719.751 396.913 726.5 410.678C735.127 428.879 724.744 448.285 718.464 465.538C713.754 477.628 708.462 489.168 702.66 501.194C698.896 508.283 694.049 518.383 685.212 518.941C680.761 518.755 678.406 514.166 677.605 510.071C675.533 498.467 680.502 487.477 685.082 476.544C694.713 456.264 703.129 430.926 689.153 410.654C675.695 390.083 647.897 386.676 632.513 407.069C624.056 417.549 618.691 430.869 612.97 442.935C606.714 457.348 598.743 471 593.442 486.255C584.767 510.031 591.217 528.272 606.779 547.176C618.505 561.168 630.482 574.861 642.184 588.78C658.49 608.68 680.874 636.178 709.757 625.156C722.899 620.317 731.412 608.582 738.048 596.8C744.959 584.645 751.814 571.826 757.964 559.064C766.728 541.39 775.825 523.732 783.666 505.629C795.821 476.601 806.245 447.119 817.623 417.857L817.671 417.743ZM795.902 270.329C801.446 276.94 795.336 286.959 791.985 293.919C788.222 301.566 783.796 308.866 779.725 316.4C773.939 326.095 763.637 349.758 750.43 343.033C745.728 340.289 743.446 334.552 742.985 329.049C742.176 317.29 747.314 306.462 752.534 296.079C758.474 284.782 767.02 273.784 779.393 269.382C784.516 267.602 791.872 266.412 795.837 270.264L795.902 270.329Z" fill="#2756FF"/>
<path d="M1116.04 80.3961C1088.05 88.4563 1082.14 126.297 1101.35 145.978C1111.92 157.041 1130.17 159.63 1143.04 151.174C1150.77 145.922 1155.93 137.174 1157.89 127.997C1164.06 102.27 1143.83 73.7278 1116.17 80.3637L1116.04 80.3961Z" fill="#2756FF"/>
</svg>
