<svg width="1623" height="290" viewBox="0 0 1623 290" fill="none" xmlns="http://www.w3.org/2000/svg">
<path d="M1111.32 0.541067C1183.45 0.217825 1245.58 29.1832 1272.73 84.8194L1182.01 113.3C1169.41 86.4522 1149.86 73.2824 1110.87 73.4571C1055.5 73.7052 1033.79 102.657 1033.99 145.937C1034.19 191.556 1062.38 216.774 1117.36 216.527C1161.42 216.33 1172.66 202.243 1174.94 188.976L1115.29 189.243L1115 125.298L1272.52 124.592L1273.22 280.165L1203.82 280.477L1199.46 265.289C1179.26 282.146 1148.88 289.3 1110.67 289.472C1018.73 289.884 958.952 246.19 942.152 185.35C927.553 245.888 876.43 278.589 794.566 278.956L644.763 279.627L643.554 9.82622L794.519 9.14947C875.076 8.78855 928.14 44.3024 942.534 108.622C960.511 43.0132 1023.53 0.934505 1111.32 0.541067ZM1388 200.121L1515.53 199.549L1515.89 279.357L1291.72 280.361L1290.5 7.6856L1387.13 7.25298L1388 200.121ZM100.915 178.699H133.265C141.592 178.699 149.599 175.611 155.759 170.066L157.05 168.841L191.93 133.99C197.818 128.1 201.338 120.249 201.781 111.972L201.829 110.192V10.42H302.743V124.132C302.743 142.668 297.574 160.647 288.143 176.255L286.618 178.699H335.094C343.421 178.699 351.428 175.611 357.588 170.066L358.879 168.841L393.759 133.99C399.647 128.1 403.167 120.249 403.61 111.972L403.658 110.192V10.42H504.573V124.132C504.573 150.018 494.595 174.878 476.835 193.61L474.97 195.526L420.408 250.094C402.114 268.398 377.497 278.949 351.7 279.632L349.028 279.667H252.286V216.384L218.579 250.094C200.285 268.398 175.668 278.949 149.871 279.632L147.199 279.667H0V10.42H100.915V178.699ZM620.858 279.014L523.382 279.45L522.176 10.3907L619.652 9.95415L620.858 279.014ZM1623 279.014L1525.52 279.45L1524.32 10.3907L1621.79 9.95415L1623 279.014ZM782.481 87.3975L740.676 87.584L741.185 201.002L775.636 200.848C790.346 200.782 849.602 207.87 849.312 143.227C849.056 85.9374 801.062 87.3142 782.481 87.3975Z" fill="#2756FF"/>
</svg>
